<svg width="21" height="20" viewBox="0 0 21 20" fill="none" xmlns="http://www.w3.org/2000/svg">
<path d="M10.0521 0.149511C10.3507 -0.0498369 10.8483 -0.0498369 11.1469 0.149511C11.346 0.249184 11.4455 0.548204 11.545 0.747551C12.4408 2.54168 13.3365 4.33581 14.1327 6.03026C16.1232 6.32928 18.2133 6.6283 20.2038 6.92732C20.6019 6.92732 20.9005 7.32602 21 7.72471V7.82439C21 8.02373 20.9005 8.22308 20.7014 8.42243C19.2085 9.81786 17.7156 11.313 16.2227 12.7084C16.5213 14.7019 16.9194 16.6953 17.218 18.6888C17.218 18.8882 17.3175 19.0875 17.218 19.2869C17.1185 19.5859 16.8199 19.8849 16.4218 19.8849C16.2227 19.8849 16.0237 19.8849 15.8246 19.7852C14.0332 18.7885 12.2417 17.8914 10.4502 16.9944C8.65877 17.9911 6.76777 18.8882 4.9763 19.8849C4.67773 19.9846 4.37915 20.0843 4.08057 19.8849C3.78199 19.6856 3.58294 19.2869 3.68246 18.9878C3.98104 16.9944 4.37915 14.9012 4.67773 12.9077C3.18483 11.5123 1.69194 10.0172 0.298577 8.62178C0.0995253 8.5221 0 8.22308 0 8.02373V7.92406C0 7.62504 0.199052 7.32602 0.398104 7.22634C0.597156 7.12667 0.796207 7.12667 1.09479 7.027C2.98578 6.72798 4.9763 6.42895 6.8673 6.22961C7.76303 4.43548 8.65877 2.64135 9.5545 0.747551C9.85308 0.348856 9.95261 0.249184 10.0521 0.149511Z" fill="#2DCA94"/>
</svg>
