<svg width="20" height="20" viewBox="0 0 20 20" fill="none" xmlns="http://www.w3.org/2000/svg">
<g clip-path="url(#clip0_5104_12941)">
<path d="M5.18124 18.8068C5.69648 18.278 5.98269 17.5675 5.97791 16.8292C5.97312 16.0909 5.67772 15.3841 5.15567 14.862C4.63362 14.3399 3.92694 14.0445 3.18863 14.0396C2.45032 14.0348 1.7398 14.3209 1.21093 14.8361C0.42968 15.6173 0.122258 16.8283 0.0246015 17.922C-0.0308826 18.5422 -0.0273511 19.1662 0.0351484 19.7857C0.0519452 19.9419 0.201164 19.9759 0.226945 19.981H0.234367C0.297258 19.9833 1.19452 20.0009 1.47109 19.1271C1.52042 18.9639 1.59333 18.8087 1.68749 18.6666C1.86835 18.3998 2.28515 18.5603 2.23905 18.8794C2.19419 19.2121 2.26302 19.5502 2.43437 19.8388C2.45334 19.8708 2.48145 19.8964 2.51507 19.9122C2.54869 19.9281 2.58629 19.9336 2.62304 19.9279C3.56093 19.7865 4.52304 19.465 5.18124 18.8068Z" fill="#6181D4"/>
<path d="M14.2786 15.6205V13.2006C14.5687 12.9514 14.8524 12.6886 15.1297 12.4123L15.8985 11.6447C18.775 8.76659 20.1793 5.07831 19.9821 1.76503C19.9239 0.790421 19.2274 0.093546 18.2524 0.0353429C14.9411 -0.161923 11.25 1.24237 8.3727 4.12011L7.60513 4.88769C7.32856 5.16425 7.0658 5.4481 6.81685 5.73925H4.39692C3.88325 5.75878 3.42896 6.05526 3.17192 6.49003L1.74927 9.33612C1.71181 9.43831 1.68561 9.54427 1.67114 9.65214C1.67337 9.83492 1.74697 10.0096 1.87623 10.1388C2.00549 10.2681 2.18016 10.3417 2.36294 10.3439H4.15981C3.92544 11.1291 4.08169 11.901 4.58091 12.3994L7.61724 15.4361C8.11567 15.935 8.88755 16.0904 9.6727 15.8572V17.6541C9.67493 17.8369 9.74854 18.0115 9.87779 18.1408C10.007 18.2701 10.1817 18.3437 10.3645 18.3459C10.4724 18.3314 10.5783 18.3052 10.6805 18.2678L13.5258 16.8451C13.9622 16.5889 14.2579 16.133 14.2786 15.6205ZM12.6094 7.408C12.2081 7.00668 11.9348 6.49538 11.8241 5.93875C11.7134 5.38212 11.7702 4.80516 11.9874 4.28082C12.2046 3.75649 12.5724 3.30834 13.0443 2.99304C13.5162 2.67773 14.071 2.50944 14.6385 2.50944C15.2061 2.50944 15.7609 2.67773 16.2327 2.99304C16.7046 3.30834 17.0724 3.75649 17.2896 4.28082C17.5068 4.80516 17.5636 5.38212 17.4529 5.93875C17.3422 6.49538 17.0689 7.00668 16.6676 7.408C16.4012 7.67447 16.0848 7.88585 15.7367 8.03006C15.3885 8.17428 15.0154 8.2485 14.6385 8.2485C14.2617 8.2485 13.8885 8.17428 13.5404 8.03006C13.1922 7.88585 12.8759 7.67447 12.6094 7.408Z" fill="#6181D4"/>
</g>
<defs>
<clipPath id="clip0_5104_12941">
<rect width="20" height="20" fill="white"/>
</clipPath>
</defs>
</svg>
