<svg width="18" height="14" viewBox="0 0 18 14" fill="none" xmlns="http://www.w3.org/2000/svg">
<path d="M3.19797 6.90714L4.88832 6.62857C5.6802 6.62857 6.38071 6.90714 6.98985 7.46428C7.62944 7.99048 7.94924 8.77976 7.94924 9.83214C7.94924 10.8536 7.61421 11.7202 6.94416 12.4321C6.27411 13.144 5.32995 13.5 4.11168 13.5C2.92386 13.5 1.93401 13.0357 1.14213 12.1071C0.380711 11.1786 0 9.9869 0 8.53214C0 7.04643 0.548223 5.57619 1.64467 4.12143C2.77157 2.66667 4.37056 1.45952 6.44162 0.5L6.76142 1.28928C3.89848 2.89881 2.467 4.52381 2.467 6.16429C2.467 6.65952 2.71066 6.90714 3.19797 6.90714ZM13.2487 6.90714L14.9391 6.62857C15.731 6.62857 16.4315 6.90714 17.0406 7.46428C17.6802 7.99048 18 8.77976 18 9.83214C18 10.8536 17.665 11.7202 16.9949 12.4321C16.3249 13.144 15.3807 13.5 14.1624 13.5C12.9746 13.5 11.9848 13.0357 11.1929 12.1071C10.4315 11.1786 10.0508 9.9869 10.0508 8.53214C10.0508 7.04643 10.599 5.57619 11.6954 4.12143C12.8223 2.66667 14.4213 1.45952 16.4924 0.5L16.8122 1.28928C13.9492 2.89881 12.5178 4.52381 12.5178 6.16429C12.5178 6.65952 12.7614 6.90714 13.2487 6.90714Z" fill="#1F7973"/>
</svg>
