<svg width="107" height="24" viewBox="0 0 107 24" fill="none" xmlns="http://www.w3.org/2000/svg">
<g clip-path="url(#clip0_4857_8176)">
<path d="M6.16043 23.5453C5.94443 23.5453 5.74612 23.4708 5.60212 23.3217C5.4398 23.1727 5.34949 22.968 5.34949 22.7255C5.34949 22.5013 5.42212 22.296 5.56612 22.1287L8.59138 18.8482C8.75433 18.6802 8.95201 18.5874 9.18633 18.5874C9.40233 18.5874 9.60064 18.6619 9.74464 18.811C9.90696 18.96 9.99728 19.1836 9.99728 19.4072C9.99728 19.6308 9.92464 19.8367 9.78064 20.004L6.75475 23.2845C6.59243 23.4525 6.39475 23.5453 6.16043 23.5453Z" fill="url(#paint0_linear_4857_8176)"/>
<path d="M1.15077 18.6264C0.93477 18.6264 0.736454 18.5336 0.574138 18.3845C0.412454 18.2355 0.340454 18.0119 0.340454 17.7877C0.340454 17.5641 0.430138 17.3589 0.574138 17.1915L3.42003 14.2275C3.56403 14.0601 3.78003 13.9856 3.99666 13.9856C4.21266 13.9856 4.41035 14.0784 4.57266 14.2275C4.73498 14.3765 4.80635 14.6001 4.80635 14.8243C4.80635 15.0479 4.71666 15.2525 4.57266 15.4205L1.72677 18.3852C1.58277 18.5342 1.36677 18.6264 1.15077 18.6264Z" fill="url(#paint1_linear_4857_8176)"/>
<path d="M1.43498 23.4985C1.21771 23.4985 1.01877 23.4051 0.855818 23.2554C0.692871 23.1057 0.620239 22.8815 0.620239 22.6573C0.620239 22.4331 0.692871 22.2278 0.855818 22.0592L6.57666 16.0592C6.73961 15.8912 6.93855 15.8167 7.15582 15.8167C7.37308 15.8167 7.57266 15.9101 7.73498 16.0592C8.06087 16.3769 8.06087 16.9188 7.75329 17.2554L2.03245 23.2554C1.87305 23.4119 1.65837 23.4993 1.43498 23.4985Z" fill="url(#paint2_linear_4857_8176)"/>
<path d="M4.89278 11.2561C6.73889 9.5925 12.4414 4.90113 18.6688 4.24682C18.7103 4.24286 18.7522 4.24862 18.7911 4.26363C18.83 4.27864 18.8649 4.30249 18.893 4.3333C18.9211 4.36411 18.9417 4.40104 18.9531 4.44116C18.9645 4.48129 18.9664 4.52351 18.9587 4.5645C18.7414 6.13461 17.5282 12.4896 12.1522 18.1529C12.0937 18.2145 12.0205 18.2603 11.9394 18.2859C11.8584 18.3115 11.7722 18.316 11.689 18.2992C11.6057 18.2823 11.528 18.2446 11.4634 18.1895C11.3987 18.1344 11.349 18.0638 11.3191 17.9843L10.0875 15.0689L8.54963 15.4794C8.47883 15.4968 8.4047 15.4949 8.33485 15.4741C8.265 15.4533 8.20195 15.4143 8.15218 15.361C8.10241 15.3078 8.06771 15.2422 8.05165 15.1712C8.03558 15.1001 8.03874 15.026 8.06078 14.9565L8.47699 13.4799L5.03742 12.1346C4.6932 12.0032 4.60289 11.5176 4.89215 11.2561H4.89278Z" fill="url(#paint3_linear_4857_8176)"/>
<path d="M22.0908 16.7697L15.936 16.8821C15.7188 16.8821 15.5192 16.9939 15.3929 17.1998C14.7771 18.2274 12.7137 21.5918 11.1019 23.0685C10.7223 23.424 10.1426 23.3306 9.87098 22.8815C9.82711 22.8078 9.78499 22.733 9.74466 22.6573C9.36445 21.7794 9.07519 21.2552 8.56803 20.3584C8.1335 19.5923 7.26445 18.5078 6.75729 17.8541C6.14214 17.0874 4.83856 15.8912 4.16845 15.4055C2.91982 14.4708 1.76087 13.9289 0.928452 13.6301C0.330979 13.4053 0.168031 12.6019 0.638558 12.1535C1.99645 10.8259 4.31372 8.63941 5.76193 7.89162C5.97919 7.77983 6.1055 7.53667 6.1055 7.29352L5.99687 1.29352C5.99687 0.807831 6.46803 0.4712 6.90256 0.677095C8.2055 1.25625 10.6497 2.48973 12.0436 4.09773C12.2066 4.28467 12.4605 4.3592 12.6954 4.28467C13.7451 3.96636 16.7325 3.10678 19.6289 2.93878C20.0268 2.91983 20.3527 3.25646 20.2983 3.66762C20.1537 5.08867 19.7741 8.15309 19.1217 10.1723C19.0497 10.3775 19.0857 10.6017 19.2303 10.7887C19.8638 11.611 21.7289 14.1158 22.6156 15.7977C22.8695 16.2278 22.5796 16.7704 22.0914 16.7704L22.0908 16.7697Z" fill="url(#paint4_linear_4857_8176)"/>
<path d="M9.34615 15.2747L8.5491 15.4799C8.47824 15.4973 8.40402 15.4955 8.3341 15.4746C8.26417 15.4538 8.20106 15.4147 8.15127 15.3614C8.10147 15.308 8.06679 15.2424 8.0508 15.1712C8.0348 15.1 8.03807 15.0259 8.06026 14.9563L8.4771 13.4803L5.03752 12.1345C4.675 11.9848 4.58468 11.4991 4.87458 11.2376C6.72005 9.5734 12.4232 4.88203 18.6506 4.22771C18.692 4.22387 18.7338 4.2297 18.7727 4.24475C18.8115 4.25981 18.8463 4.28368 18.8744 4.31447C18.9024 4.34527 18.9229 4.38216 18.9343 4.42223C18.9456 4.4623 18.9475 4.50447 18.9398 4.5454C18.7226 6.1155 17.5099 12.4698 12.1333 18.1332C12.0749 18.1948 12.0017 18.2406 11.9207 18.2662C11.8397 18.2919 11.7536 18.2965 11.6703 18.2797C11.587 18.2629 11.5094 18.2252 11.4447 18.1702C11.3799 18.1152 11.3303 18.0447 11.3003 17.9652L10.0693 15.0492L9.34552 15.274L9.34615 15.2747Z" fill="#FFFFFC"/>
<path d="M14.0887 10.8631C15.1087 10.8631 15.9354 10.0099 15.9354 8.95703C15.9354 7.90356 15.1087 7.05029 14.0887 7.05029C13.0693 7.05029 12.2426 7.90356 12.2426 8.95703C12.2426 10.0099 13.0693 10.8631 14.0887 10.8631Z" fill="url(#paint5_linear_4857_8176)"/>
<path d="M33.0587 9.94665C32.4309 9.34728 31.7406 9.17613 30.9663 9.17613C29.9412 9.15528 29.2717 9.49697 29.2717 10.1601C29.2926 10.8448 29.9829 11.1012 31.0086 11.2085C32.4732 11.3368 34.3983 11.6791 34.3768 13.7753C34.3559 15.2942 33.0587 16.342 30.9871 16.342C29.6898 16.342 28.3926 16.0427 27.3467 14.8452L28.2252 13.6471C28.9787 14.4808 30.0877 14.8452 31.0294 14.8452C31.8246 14.8452 32.7031 14.5458 32.7239 13.7968C32.7448 13.0698 32.0545 12.7913 30.8829 12.6631C29.3759 12.5134 27.6606 12.0214 27.6397 10.2245C27.6397 8.42771 29.4599 7.74307 30.9454 7.74307C32.1802 7.74307 33.1218 8.02097 34.0212 8.83444L33.0587 9.94665ZM37.8922 5.54013C37.8922 6.95171 35.8206 6.95171 35.8206 5.54013C35.8206 4.17086 37.8922 4.17086 37.8922 5.54013ZM36.0303 7.91486V16.0856H37.7039V7.91423L36.0303 7.91486ZM42.5166 5.60455V7.95718H44.8389V9.43318H42.4957V13.3048C42.4957 14.1605 42.8722 14.6525 43.6465 14.6525C43.9604 14.6525 44.3368 14.5452 44.6715 14.3747L45.1528 15.8292C44.609 16.0856 44.1277 16.193 43.5625 16.193C41.8256 16.2353 40.8429 15.2304 40.8429 13.3262V9.45465H39.3151V7.97865H40.8429V5.77507L42.5166 5.60455ZM47.7688 12.6416C47.9147 13.8827 48.9195 14.6955 50.3633 14.6955C51.1793 14.6955 52.1835 14.3747 52.6648 13.8182L53.753 14.8875C52.937 15.8077 51.5557 16.2782 50.321 16.2782C47.7063 16.2782 46.0319 14.5667 46.0319 11.9784C46.0319 9.49697 47.7265 7.74307 50.2168 7.74307C52.7905 7.74307 54.5273 9.34728 54.2134 12.6631L47.7688 12.6416ZM52.6231 11.2085C52.5183 9.92518 51.5974 9.24055 50.2585 9.24055C49.0452 9.24055 48.0404 9.92518 47.789 11.2085H52.6231ZM57.5816 7.91423V17.0481C57.5816 19.102 56.849 20.1713 55.0711 20.1713C54.4741 20.1734 53.8905 19.9943 53.3974 19.6578L54.0037 18.3107C54.3385 18.4812 54.6947 18.5671 55.0288 18.5671C55.8246 18.5456 55.9496 17.9892 55.9496 17.0481V7.91423H57.5816ZM55.7197 5.51865C55.7197 6.93023 57.7913 6.93023 57.7913 5.51865C57.7913 4.12855 55.7197 4.12855 55.7197 5.51865ZM66.2444 7.93571H67.8555V16.0862H66.2652L66.1818 14.7599C65.6583 15.8083 64.4242 16.301 63.4408 16.301C61.1178 16.3218 59.3608 14.7814 59.3608 12.0005C59.3608 9.28476 61.181 7.76518 63.4825 7.76518C64.6124 7.76518 65.7006 8.30013 66.2027 9.24118L66.2444 7.93634V7.93571ZM61.0338 11.9999C61.0338 13.69 62.2061 14.717 63.629 14.717C67.0604 14.717 67.0604 9.32644 63.629 9.32644C62.1852 9.32644 61.0338 10.3319 61.0338 11.9999ZM71.789 4.53465V9.1976C72.3126 8.23507 73.6098 7.74307 74.5932 7.74307C76.8947 7.74307 78.6315 9.21907 78.6315 11.9784C78.6315 14.674 76.8738 16.2138 74.5515 16.2138C73.4842 16.2138 72.4168 15.8077 71.789 14.7593L71.6848 16.0427H70.1153V4.49171L71.789 4.53465ZM71.873 11.9999C71.873 13.6041 73.0237 14.6525 74.4258 14.6525C75.8065 14.6525 76.9364 13.6256 76.9364 11.9999C76.9364 10.3313 75.8065 9.34728 74.4258 9.34728C73.0446 9.36876 71.873 10.4387 71.873 11.9999ZM82.0629 4.53465V9.1976C82.5858 8.23507 83.8831 7.74307 84.8665 7.74307C87.1686 7.74307 88.9054 9.21907 88.9054 11.9784C88.9054 14.674 87.1477 16.2138 84.8248 16.2138C83.7581 16.2138 82.6907 15.8077 82.0629 14.7593L81.9581 16.0427H80.3892V4.49171L82.0629 4.53465ZM82.1469 11.9999C82.1469 13.6041 83.2976 14.6525 84.6991 14.6525C86.0804 14.6525 87.2103 13.6256 87.2103 11.9999C87.2103 10.3313 86.0804 9.34728 84.6991 9.34728C83.3185 9.36876 82.1469 10.4387 82.1469 11.9999ZM91.9181 12.6416C92.0646 13.8827 93.0694 14.6955 94.5126 14.6955C95.3292 14.6955 96.3334 14.3747 96.8147 13.8182L97.9023 14.8875C97.0863 15.8077 95.7056 16.2782 94.4709 16.2782C91.8555 16.2782 90.1818 14.5667 90.1818 11.9784C90.1818 9.49697 91.8764 7.74307 94.3667 7.74307C96.9404 7.74307 98.6766 9.34728 98.3627 12.6631L91.9181 12.6416ZM96.7724 11.2085C96.6682 9.92518 95.7473 9.24055 94.4084 9.24055C93.1945 9.24055 92.1903 9.92518 91.9395 11.2085H96.7724ZM101.627 7.93571L101.732 9.0056C102.318 7.95718 103.217 7.74307 104.075 7.74307C104.85 7.74307 105.602 8.02097 106.042 8.42771L105.289 9.90371C104.891 9.58286 104.493 9.41171 103.887 9.41171C102.736 9.41171 101.732 10.1393 101.732 11.6361V16.0427H100.058V7.89276L101.627 7.93571Z" fill="#3155C4"/>
</g>
<defs>
<linearGradient id="paint0_linear_4857_8176" x1="4.95286" y1="24.1952" x2="8.78149" y2="20.3558" gradientUnits="userSpaceOnUse">
<stop offset="0.188" stop-color="#25E2EA"/>
<stop offset="1" stop-color="#19A6D1"/>
</linearGradient>
<linearGradient id="paint1_linear_4857_8176" x1="-0.291125" y1="19.4683" x2="4.38761" y2="14.7555" gradientUnits="userSpaceOnUse">
<stop offset="0.396" stop-color="#E55EC4"/>
<stop offset="1" stop-color="#8225D0"/>
</linearGradient>
<linearGradient id="paint2_linear_4857_8176" x1="5.53961" y1="18.6133" x2="2.1474" y2="21.1952" gradientUnits="userSpaceOnUse">
<stop stop-color="#A443FD"/>
<stop offset="1" stop-color="#A959F3"/>
</linearGradient>
<linearGradient id="paint3_linear_4857_8176" x1="4.28773" y1="20.0426" x2="39.2052" y2="-20.7245" gradientUnits="userSpaceOnUse">
<stop offset="0.102" stop-color="white" stop-opacity="0.7"/>
<stop offset="0.481" stop-color="white" stop-opacity="0"/>
</linearGradient>
<linearGradient id="paint4_linear_4857_8176" x1="22.0535" y1="1.98446" x2="5.36151" y2="15.6461" gradientUnits="userSpaceOnUse">
<stop offset="0.174" stop-color="#52BFCA"/>
<stop offset="0.916" stop-color="#7238DF"/>
</linearGradient>
<linearGradient id="paint5_linear_4857_8176" x1="20.2049" y1="1.48861" x2="6.68782" y2="16.9269" gradientUnits="userSpaceOnUse">
<stop stop-color="#52BFCA"/>
<stop offset="1" stop-color="#7238DF"/>
</linearGradient>
<clipPath id="clip0_4857_8176">
<rect width="106.105" height="24" fill="white"/>
</clipPath>
</defs>
</svg>
