<svg width="103" height="103" viewBox="0 0 103 103" fill="none" xmlns="http://www.w3.org/2000/svg">
<path d="M99.9824 30.377C98.3159 30.377 96.9648 31.728 96.9648 33.3945V36.4121H90.2095C88.9638 32.9001 85.6097 30.377 81.6758 30.377H78.6582V24.3418H87.7109C89.3774 24.3418 90.7285 22.9907 90.7285 21.3242V15.2891C90.7285 10.2974 86.6675 6.23633 81.6758 6.23633H33.3945C28.4029 6.23633 24.3418 10.2974 24.3418 15.2891V30.377H21.3242C17.3903 30.377 14.0362 32.9001 12.7905 36.4121H6.03516V33.3945C6.03516 31.728 4.68409 30.377 3.01758 30.377C1.35107 30.377 0 31.728 0 33.3945V45.4648C0 47.1314 1.35107 48.4824 3.01758 48.4824C4.68409 48.4824 6.03516 47.1314 6.03516 45.4648V42.4473H12.2715C12.2715 44.0562 12.2715 85.8312 12.2715 87.7109C12.2715 92.7026 16.3325 96.7637 21.3242 96.7637H81.6758C86.6675 96.7637 90.7285 92.7026 90.7285 87.7109C90.7285 85.8179 90.7285 44.0379 90.7285 42.4473H96.9648V45.4648C96.9648 47.1314 98.3159 48.4824 99.9824 48.4824C101.649 48.4824 103 47.1314 103 45.4648V33.3945C103 31.728 101.649 30.377 99.9824 30.377ZM78.6582 15.2891C78.6582 13.6252 80.0119 12.2715 81.6758 12.2715C83.3397 12.2715 84.6934 13.6252 84.6934 15.2891V18.3066H78.6582V15.2891ZM30.377 15.2891C30.377 13.6252 31.7306 12.2514 33.3945 12.2514H73.1421C72.8071 13.1959 72.623 14.2313 72.623 15.2891C72.623 18.2328 72.623 41.1242 72.623 44.215L62.3204 54.5176H40.6796L30.377 44.215V15.2891ZM18.3066 39.4297C18.3066 37.7658 19.6603 36.4121 21.3242 36.4121H24.3418V42.4473H18.3066V39.4297ZM84.6934 87.7109C84.6934 89.3748 83.3397 90.7285 81.6758 90.7285H21.3242C19.6603 90.7285 18.3066 89.3748 18.3066 87.7109V48.4824H26.1095L37.2959 59.6688C37.8618 60.2347 38.6292 60.5527 39.4297 60.5527H63.5703C64.3708 60.5527 65.1382 60.2347 65.7039 59.6688L76.8905 48.4824H84.6934V87.7109ZM84.6934 42.4473H78.6582V36.4121H81.6758C83.3397 36.4121 84.6934 37.7658 84.6934 39.4297V42.4473Z" fill="white"/>
<path d="M27.3535 72.623C29.0201 72.623 30.3711 71.272 30.3711 69.6055C30.3711 67.9389 29.0201 66.5879 27.3535 66.5879C25.687 66.5879 24.3359 67.9389 24.3359 69.6055C24.3359 71.272 25.687 72.623 27.3535 72.623Z" fill="white"/>
<path d="M39.4238 72.623C41.0904 72.623 42.4414 71.272 42.4414 69.6055C42.4414 67.9389 41.0904 66.5879 39.4238 66.5879C37.7573 66.5879 36.4062 67.9389 36.4062 69.6055C36.4062 71.272 37.7573 72.623 39.4238 72.623Z" fill="white"/>
<path d="M51.4941 72.623C53.1607 72.623 54.5117 71.272 54.5117 69.6055C54.5117 67.9389 53.1607 66.5879 51.4941 66.5879C49.8276 66.5879 48.4766 67.9389 48.4766 69.6055C48.4766 71.272 49.8276 72.623 51.4941 72.623Z" fill="white"/>
<path d="M63.5645 72.623C65.231 72.623 66.582 71.272 66.582 69.6055C66.582 67.9389 65.231 66.5879 63.5645 66.5879C61.8979 66.5879 60.5469 67.9389 60.5469 69.6055C60.5469 71.272 61.8979 72.623 63.5645 72.623Z" fill="white"/>
<path d="M75.6348 72.623C77.3013 72.623 78.6523 71.272 78.6523 69.6055C78.6523 67.9389 77.3013 66.5879 75.6348 66.5879C73.9682 66.5879 72.6172 67.9389 72.6172 69.6055C72.6172 71.272 73.9682 72.623 75.6348 72.623Z" fill="white"/>
<path d="M27.3535 84.6934C29.0201 84.6934 30.3711 83.3423 30.3711 81.6758C30.3711 80.0092 29.0201 78.6582 27.3535 78.6582C25.687 78.6582 24.3359 80.0092 24.3359 81.6758C24.3359 83.3423 25.687 84.6934 27.3535 84.6934Z" fill="white"/>
<path d="M75.6348 84.6934C77.3013 84.6934 78.6523 83.3423 78.6523 81.6758C78.6523 80.0092 77.3013 78.6582 75.6348 78.6582C73.9682 78.6582 72.6172 80.0092 72.6172 81.6758C72.6172 83.3423 73.9682 84.6934 75.6348 84.6934Z" fill="white"/>
<path d="M63.5703 78.6582H39.4297C37.7632 78.6582 36.4121 80.0093 36.4121 81.6758C36.4121 83.3423 37.7632 84.6934 39.4297 84.6934H63.5703C65.2368 84.6934 66.5879 83.3423 66.5879 81.6758C66.5879 80.0093 65.2368 78.6582 63.5703 78.6582Z" fill="white"/>
<path d="M63.5703 18.3066H39.4297C37.7632 18.3066 36.4121 19.6577 36.4121 21.3242C36.4121 22.9907 37.7632 24.3418 39.4297 24.3418H63.5703C65.2368 24.3418 66.5879 22.9907 66.5879 21.3242C66.5879 19.6577 65.2368 18.3066 63.5703 18.3066Z" fill="white"/>
<path d="M63.5703 30.377H39.4297C37.7632 30.377 36.4121 31.728 36.4121 33.3945C36.4121 35.061 37.7632 36.4121 39.4297 36.4121H63.5703C65.2368 36.4121 66.5879 35.061 66.5879 33.3945C66.5879 31.728 65.2368 30.377 63.5703 30.377Z" fill="white"/>
<path d="M63.5703 42.4473H39.4297C37.7632 42.4473 36.4121 43.7983 36.4121 45.4648C36.4121 47.1314 37.7632 48.4824 39.4297 48.4824H63.5703C65.2368 48.4824 66.5879 47.1314 66.5879 45.4648C66.5879 43.7983 65.2368 42.4473 63.5703 42.4473Z" fill="white"/>
</svg>
