<svg width="10" height="11" viewBox="0 0 10 11" fill="none" xmlns="http://www.w3.org/2000/svg">
<path d="M5 5.5C5.51918 5.5 6.02669 5.34605 6.45837 5.05761C6.89005 4.76917 7.2265 4.3592 7.42518 3.87955C7.62386 3.39989 7.67585 2.87209 7.57456 2.36289C7.47328 1.85369 7.22327 1.38596 6.85616 1.01885C6.48904 0.651733 6.02131 0.401726 5.51211 0.30044C5.00291 0.199154 4.47511 0.251137 3.99546 0.449817C3.5158 0.648497 3.10583 0.98495 2.81739 1.41663C2.52895 1.84831 2.375 2.35583 2.375 2.875C2.375 3.57119 2.65156 4.23887 3.14384 4.73116C3.63613 5.22344 4.30381 5.5 5 5.5ZM5 6.25C3.37297 6.25 0.125 7.255 0.125 9.25V10.75H9.875V9.25C9.875 7.255 6.62703 6.25 5 6.25Z" fill="#323232"/>
</svg>
