<svg width="60" height="60" viewBox="0 0 60 60" fill="none" xmlns="http://www.w3.org/2000/svg">
<path d="M10.6252 16.7499C11.1888 16.7499 11.7293 16.526 12.1278 16.1275C12.5264 15.729 12.7502 15.1885 12.7502 14.6249C12.7502 14.0613 12.5264 13.5208 12.1278 13.1223C11.7293 12.7238 11.1888 12.4999 10.6252 12.4999C10.0617 12.4999 9.52116 12.7238 9.12264 13.1223C8.72413 13.5208 8.50024 14.0613 8.50024 14.6249C8.50024 15.1885 8.72413 15.729 9.12264 16.1275C9.52116 16.526 10.0617 16.7499 10.6252 16.7499Z" fill="#1F7973"/>
<path d="M21.2498 14.6249C21.2498 14.0613 21.0259 13.5208 20.6274 13.1223C20.2288 12.7238 19.6883 12.4999 19.1248 12.4999C18.7045 12.4999 18.2936 12.6245 17.9442 12.858C17.5947 13.0915 17.3223 13.4234 17.1615 13.8117C17.0007 14.2 16.9586 14.6273 17.0406 15.0395C17.1226 15.4517 17.325 15.8303 17.6222 16.1275C17.9193 16.4247 18.298 16.6271 18.7102 16.7091C19.1224 16.7911 19.5497 16.749 19.938 16.5882C20.3263 16.4273 20.6581 16.155 20.8916 15.8055C21.1251 15.456 21.2498 15.0452 21.2498 14.6249Z" fill="#1F7973"/>
<path d="M57.375 4H2.125C1.56141 4 1.02091 4.22388 0.622398 4.6224C0.223883 5.02091 0 5.56141 0 6.125V52.875C0 53.4386 0.223883 53.9791 0.622398 54.3776C1.02091 54.7761 1.56141 55 2.125 55H27.625C28.1886 55 28.7291 54.7761 29.1276 54.3776C29.5261 53.9791 29.75 53.4386 29.75 52.875C29.75 52.3114 29.5261 51.7709 29.1276 51.3724C28.7291 50.9739 28.1886 50.75 27.625 50.75H4.25V8.25H55.25V12.5H27.625C27.0614 12.5 26.5209 12.7239 26.1224 13.1224C25.7239 13.5209 25.5 14.0614 25.5 14.625C25.5 15.1886 25.7239 15.7291 26.1224 16.1276C26.5209 16.5261 27.0614 16.75 27.625 16.75H55.25V23.125C55.25 23.6886 55.4739 24.2291 55.8724 24.6276C56.2709 25.0261 56.8114 25.25 57.375 25.25C57.9386 25.25 58.4791 25.0261 58.8776 24.6276C59.2761 24.2291 59.5 23.6886 59.5 23.125V6.125C59.5 5.56141 59.2761 5.02091 58.8776 4.6224C58.4791 4.22388 57.9386 4 57.375 4Z" fill="#1F7973"/>
<path d="M19.1252 25.25C19.1252 24.6864 18.9014 24.1459 18.5028 23.7474C18.1043 23.3489 17.5638 23.125 17.0002 23.125C15.8731 23.125 14.7921 23.5728 13.995 24.3698C13.198 25.1668 12.7502 26.2478 12.7502 27.375V29.5C12.7502 30.0636 12.5264 30.6041 12.1278 31.0026C11.7293 31.4011 11.1888 31.625 10.6252 31.625C10.0617 31.625 9.52116 31.8489 9.12264 32.2474C8.72413 32.6459 8.50024 33.1864 8.50024 33.75C8.50024 34.3136 8.72413 34.8541 9.12264 35.2526C9.52116 35.6511 10.0617 35.875 10.6252 35.875C11.1888 35.875 11.7293 36.0989 12.1278 36.4974C12.5264 36.8959 12.7502 37.4364 12.7502 38V40.125C12.7502 41.2522 13.198 42.3332 13.995 43.1302C14.7921 43.9272 15.8731 44.375 17.0002 44.375C17.5638 44.375 18.1043 44.1511 18.5028 43.7526C18.9014 43.3541 19.1252 42.8136 19.1252 42.25C19.1252 41.6864 18.9014 41.1459 18.5028 40.7474C18.1043 40.3489 17.5638 40.125 17.0002 40.125V38C16.9967 36.4302 16.4141 34.9169 15.364 33.75C16.4141 32.5831 16.9967 31.0698 17.0002 29.5V27.375C17.5638 27.375 18.1043 27.1511 18.5028 26.7526C18.9014 26.3541 19.1252 25.8136 19.1252 25.25Z" fill="#1F7973"/>
<path d="M29.7498 29.5001C29.7498 28.9365 29.5259 28.396 29.1274 27.9975C28.7288 27.599 28.1883 27.3751 27.6248 27.3751H25.4998C24.9362 27.3751 24.3957 27.599 23.9972 27.9975C23.5986 28.396 23.3748 28.9365 23.3748 29.5001C23.3748 30.0637 23.5986 30.6042 23.9972 31.0027C24.3957 31.4012 24.9362 31.6251 25.4998 31.6251H27.6248C28.1883 31.6251 28.7288 31.4012 29.1274 31.0027C29.5259 30.6042 29.7498 30.0637 29.7498 29.5001Z" fill="#1F7973"/>
<path d="M25.4998 35.875C25.0795 35.875 24.6686 35.9996 24.3192 36.2331C23.9697 36.4666 23.6973 36.7985 23.5365 37.1868C23.3757 37.5751 23.3336 38.0024 23.4156 38.4146C23.4976 38.8268 23.7 39.2054 23.9972 39.5026C24.2943 39.7998 24.673 40.0022 25.0852 40.0842C25.4974 40.1662 25.9247 40.1241 26.313 39.9632C26.7013 39.8024 27.0331 39.53 27.2666 39.1806C27.5001 38.8311 27.6248 38.4203 27.6248 38C27.6248 37.4364 27.4009 36.8959 27.0024 36.4974C26.6038 36.0989 26.0633 35.875 25.4998 35.875Z" fill="#1F7973"/>
<path d="M44.6248 25.2499C41.6828 25.2499 38.8068 26.1223 36.3607 27.7568C33.9145 29.3913 32.0079 31.7145 30.8821 34.4325C29.7562 37.1506 29.4616 40.1414 30.0356 43.0269C30.6095 45.9124 32.0262 48.5628 34.1066 50.6431C36.1869 52.7234 38.8373 54.1402 41.7228 54.7141C44.6083 55.2881 47.5991 54.9935 50.3172 53.8676C53.0352 52.7418 55.3584 50.8352 56.9929 48.389C58.6274 45.9429 59.4998 43.0669 59.4998 40.1249C59.4998 36.1798 57.9326 32.3963 55.143 29.6067C52.3534 26.8171 48.5699 25.2499 44.6248 25.2499ZM44.6248 50.7499C42.5233 50.7499 40.4691 50.1268 38.7218 48.9593C36.9746 47.7918 35.6127 46.1324 34.8085 44.1909C34.0044 42.2495 33.794 40.1131 34.2039 38.0521C34.6139 35.991 35.6258 34.0978 37.1118 32.6119C38.5977 31.126 40.4909 30.114 42.5519 29.7041C44.613 29.2941 46.7493 29.5045 48.6908 30.3087C50.6322 31.1129 52.2916 32.4747 53.4591 34.222C54.6266 35.9693 55.2498 38.0235 55.2498 40.1249C55.2498 42.9428 54.1303 45.6454 52.1378 47.6379C50.1452 49.6305 47.4427 50.7499 44.6248 50.7499Z" fill="#1F7973"/>
<path d="M51.2656 40.1232C51.2668 39.8427 51.2124 39.5647 51.1056 39.3053C50.9987 39.046 50.8416 38.8103 50.6433 38.6119C50.4449 38.4136 50.2092 38.2564 49.9498 38.1496C49.6904 38.0428 49.4125 37.9884 49.1319 37.9895L46.7428 38.0046L46.7578 35.6154C46.7578 35.0495 46.533 34.5068 46.1329 34.1067C45.7327 33.7065 45.19 33.4817 44.6241 33.4817C44.0583 33.4817 43.5155 33.7065 43.1154 34.1067C42.7152 34.5068 42.4905 35.0495 42.4905 35.6154L42.5055 38.0046L40.1163 37.9895C39.5504 37.9895 39.0077 38.2143 38.6076 38.6145C38.2074 39.0146 37.9826 39.5573 37.9826 40.1232C37.9826 40.6891 38.2074 41.2318 38.6076 41.632C39.0077 42.0321 39.5504 42.2569 40.1163 42.2569L42.5055 42.2419L42.4905 44.631C42.4905 44.9112 42.5456 45.1887 42.6529 45.4476C42.7601 45.7064 42.9173 45.9417 43.1154 46.1398C43.3135 46.3379 43.5487 46.4951 43.8076 46.6023C44.0665 46.7095 44.3439 46.7647 44.6241 46.7647C44.9043 46.7647 45.1818 46.7095 45.4407 46.6023C45.6995 46.4951 45.9348 46.3379 46.1329 46.1398C46.331 45.9417 46.4882 45.7064 46.5954 45.4476C46.7026 45.1887 46.7578 44.9112 46.7578 44.631L46.7428 42.2419L49.1319 42.2569C49.4125 42.2581 49.6904 42.2037 49.9498 42.0969C50.2092 41.99 50.4449 41.8329 50.6433 41.6346C50.8416 41.4362 50.9987 41.2005 51.1056 40.9411C51.2124 40.6817 51.2668 40.4038 51.2656 40.1232Z" fill="#1F7973"/>
</svg>
