<svg width="60" height="60" viewBox="0 0 60 60" fill="none" xmlns="http://www.w3.org/2000/svg">
<path d="M49.6807 16.5564L52.5012 13.7359L53.1333 14.368C53.8196 15.0545 54.9327 15.0546 55.6192 14.368C56.3056 13.6815 56.3056 12.5686 55.6192 11.8821L51.8692 8.13211C51.1828 7.44562 50.0697 7.44562 49.3833 8.13211C48.6968 8.81859 48.6968 9.93152 49.3833 10.618L50.0151 11.25L47.1947 14.0705C43.8285 11.121 39.8243 9.11836 35.5088 8.19715V3.51562H37.501C38.4718 3.51562 39.2588 2.72859 39.2588 1.75781C39.2588 0.787031 38.4718 0 37.501 0C35.928 0 24.084 0 22.501 0C21.5303 0 20.7432 0.787031 20.7432 1.75781C20.7432 2.72859 21.5303 3.51562 22.501 3.51562H24.4932V8.19715C20.1778 9.11836 16.1735 11.121 12.8074 14.0705L9.98693 11.25L10.619 10.6179C11.3055 9.93141 11.3055 8.81848 10.619 8.13199C9.93268 7.44551 8.81963 7.44551 8.13314 8.13199L4.38314 11.882C3.27256 12.9927 4.07424 14.8828 5.62604 14.8828C6.07592 14.8828 6.5258 14.7113 6.86893 14.3679L7.50104 13.7358L10.3215 16.5562C6.14834 21.3191 3.86822 27.3589 3.86822 33.75C3.86822 48.2243 15.5914 60 30.001 60C44.4106 60 56.1338 48.2243 56.1338 33.75C56.1338 27.3589 53.8537 21.3191 49.6807 16.5564ZM28.0088 3.51562H31.9932V7.69195C30.6783 7.5934 29.3556 7.59105 28.0088 7.69195V3.51562ZM42.8332 52.4602L41.8359 50.7328C41.3505 49.8921 40.2754 49.6039 39.4347 50.0895C38.594 50.5748 38.306 51.6499 38.7914 52.4906L39.8001 54.2379C37.3339 55.4345 34.6202 56.1939 31.759 56.4161V54.375C31.759 53.4042 30.9719 52.6172 30.0012 52.6172C29.0304 52.6172 28.2433 53.4042 28.2433 54.375V56.4162C25.3821 56.194 22.6684 55.4346 20.2022 54.238L21.2109 52.4907C21.6963 51.65 21.4083 50.575 20.5676 50.0896C19.7267 49.6039 18.6517 49.8921 18.1664 50.7329L17.1691 52.4603C14.8816 50.8703 12.8986 48.8684 11.3271 46.5613L13.0182 45.5849C13.8589 45.0995 14.147 44.0244 13.6616 43.1837C13.1762 42.343 12.1012 42.0548 11.2604 42.5404L9.57771 43.5118C8.41018 41.0536 7.6685 38.3535 7.451 35.5079H9.37615C10.3469 35.5079 11.134 34.7209 11.134 33.7501C11.134 32.7793 10.3469 31.9923 9.37615 31.9923H7.4517C7.67131 29.1495 8.41897 26.4525 9.59611 23.9991L11.2603 24.9599C12.0972 25.4433 13.1741 25.1609 13.6615 24.3165C14.1469 23.4758 13.8588 22.4007 13.0181 21.9154L11.3597 20.9578C12.935 18.6693 14.9202 16.6841 17.2087 15.1087L18.1663 16.7672C18.6541 17.6121 19.7307 17.8937 20.5674 17.4105C21.4081 16.9252 21.6962 15.8501 21.2108 15.0094L20.25 13.3452C22.7034 12.168 25.4004 11.4203 28.2432 11.2008V13.125C28.2432 14.0958 29.0303 14.8828 30.001 14.8828C30.9718 14.8828 31.7588 14.0958 31.7588 13.125V11.2007C34.6017 11.4203 37.2987 12.1679 39.7521 13.3451L38.7913 15.0093C38.3059 15.85 38.5939 16.925 39.4346 17.4104C40.2716 17.8938 41.3484 17.6114 41.8358 16.7671L42.7933 15.1086C45.0819 16.684 47.0669 18.6691 48.6424 20.9577L46.984 21.9152C46.1433 22.4006 45.8552 23.4757 46.3406 24.3164C46.8285 25.1613 47.9051 25.4429 48.7418 24.9598L50.406 23.9989C51.5831 26.4524 52.3309 29.1493 52.5504 31.9922H50.626C49.6553 31.9922 48.8682 32.7792 48.8682 33.75C48.8682 34.7208 49.6553 35.5078 50.626 35.5078H52.5512C52.3337 38.3534 51.592 41.0535 50.4245 43.5117L48.7418 42.5402C47.9011 42.0546 46.8259 42.3429 46.3406 43.1836C45.8552 44.0243 46.1433 45.0994 46.984 45.5848L48.6751 46.5612C47.1037 48.8682 45.1206 50.8702 42.8332 52.4602Z" fill="#1F7973"/>
<path fill-rule="evenodd" clip-rule="evenodd" d="M30.0621 18C32.8188 18 35.527 18.7256 37.9144 20.104C40.3018 21.4824 42.2843 23.4649 43.6626 25.8522C45.041 28.2396 45.7666 30.9478 45.7666 33.7045C45.7666 36.4612 45.041 39.1693 43.6626 41.5567C43.1794 42.3937 42.1091 42.6805 41.2721 42.1973L28.8121 35.0035C28.5027 34.8249 28.3121 34.4948 28.3121 34.1375L28.3121 19.75C28.3121 18.7835 29.0956 18 30.0621 18ZM31.8121 21.6261L31.8121 32.6941L41.3973 38.2281C41.9696 36.794 42.2666 35.2592 42.2666 33.7045C42.2666 31.5621 41.7027 29.4576 40.6315 27.6022C39.5604 25.7469 38.0197 24.2063 36.1644 23.1351C34.818 22.3577 33.3403 21.8475 31.8121 21.6261Z" fill="#1F7973"/>
</svg>
