<svg width="40" height="40" viewBox="0 0 40 40" fill="none" xmlns="http://www.w3.org/2000/svg">
<path d="M29.2969 1.25H1.17188C0.524687 1.25 0 1.77469 0 2.42188V37.5781C0 38.2253 0.524687 38.75 1.17188 38.75H29.2969C29.9441 38.75 30.4688 38.2253 30.4688 37.5781V2.42188C30.4688 1.77469 29.9441 1.25 29.2969 1.25ZM4.6875 36.4062H2.34375V3.59375H10.0615C10.053 3.60227 5.02219 8.63312 5.03008 8.62523C4.81078 8.84492 4.6875 9.14844 4.6875 9.45312V36.4062ZM11.7188 5.25102V8.28125H8.68852L11.7188 5.25102ZM28.125 36.4062H7.03125V10.625H12.8906C13.5378 10.625 14.0625 10.1003 14.0625 9.45312V3.59375H28.125V36.4062Z" fill="#1F7973"/>
<path d="M38.8281 5.9375H34.1406C33.4934 5.9375 32.9688 6.46219 32.9688 7.10938V32.8906C32.9688 33.0726 33.0111 33.252 33.0924 33.4147L35.4362 38.1022C35.6348 38.4992 36.0405 38.75 36.4844 38.75C36.9283 38.75 37.334 38.4992 37.5326 38.1022L39.8763 33.4147C39.9577 33.252 40 33.0725 40 32.8906V7.10938C40 6.46219 39.4753 5.9375 38.8281 5.9375ZM37.6562 8.28125V10.625H35.3125V8.28125H37.6562ZM36.4844 34.9577L35.3125 32.614V12.9688H37.6562V32.614L36.4844 34.9577Z" fill="#1F7973"/>
<path d="M10.5469 17.6562C9.89969 17.6562 9.375 18.1809 9.375 18.8281C9.375 19.4753 9.89969 20 10.5469 20H24.6094C25.2566 20 25.7812 19.4753 25.7812 18.8281C25.7812 18.1809 25.2566 17.6562 24.6094 17.6562H10.5469Z" fill="#1F7973"/>
<path d="M24.6094 22.3438H10.5469C9.89969 22.3438 9.375 22.8684 9.375 23.5156C9.375 24.1628 9.89969 24.6875 10.5469 24.6875H24.6094C25.2566 24.6875 25.7812 24.1628 25.7812 23.5156C25.7812 22.8684 25.2566 22.3438 24.6094 22.3438Z" fill="#1F7973"/>
<path d="M24.6094 27.0312H10.5469C9.89969 27.0312 9.375 27.5559 9.375 28.2031C9.375 28.8503 9.89969 29.375 10.5469 29.375H24.6094C25.2566 29.375 25.7812 28.8503 25.7812 28.2031C25.7812 27.5559 25.2566 27.0312 24.6094 27.0312Z" fill="#1F7973"/>
</svg>
