<svg width="56" height="56" viewBox="0 0 56 56" fill="none" xmlns="http://www.w3.org/2000/svg">
<path d="M23.0508 46.1562H16.4883V49.4375H23.0508V46.1562Z" fill="#1F7973"/>
<path d="M54.2773 18.1016C54.2773 8.12033 46.157 0 36.1758 0H1.72266V56H37.8164V36.128C47.0316 35.2961 54.2773 27.5297 54.2773 18.1016ZM25.7946 3.28125C24.4684 4.21291 23.2722 5.31748 22.2394 6.5625H5.00391V3.28125H25.7946ZM20.5906 27.3118L18.1531 36.1242L26.9655 33.6867C29.2794 35.057 31.8592 35.8857 34.5352 36.1272V39.5938H5.00391V9.84375H20.0702C18.7949 12.3211 18.0742 15.1286 18.0742 18.1016C18.0742 21.36 18.942 24.528 20.5906 27.3118ZM5.00391 52.7188V42.875H34.5352V52.7188H5.00391ZM36.1758 32.9219C33.3014 32.9219 30.5135 32.0977 28.1138 30.5385L27.4944 30.1361L22.8593 31.4182L24.1414 26.783L23.739 26.1636C22.1797 23.7638 21.3555 20.976 21.3555 18.1017C21.3555 9.92972 28.0038 3.28136 36.1758 3.28136C44.3477 3.28136 50.9961 9.92972 50.9961 18.1017C50.9961 26.2736 44.3477 32.9219 36.1758 32.9219Z" fill="#1F7973"/>
<path d="M37.8164 16.4609H34.5352V19.7422H37.8164V16.4609Z" fill="#1F7973"/>
<path d="M44.3789 16.4609H41.0977V19.7422H44.3789V16.4609Z" fill="#1F7973"/>
<path d="M31.2539 16.4609H27.9727V19.7422H31.2539V16.4609Z" fill="#1F7973"/>
</svg>
