<svg width="60" height="60" viewBox="0 0 60 60" fill="none" xmlns="http://www.w3.org/2000/svg">
<path d="M57.2219 37.0788C56.8931 36.6084 56.3552 36.3281 55.7812 36.3281H54.0234V26.3672C54.0234 25.8138 53.7629 25.2929 53.3203 24.9609L48.6328 21.4453C47.8562 20.863 46.7544 21.0204 46.1718 21.7969C45.5893 22.5735 45.7468 23.6753 46.5234 24.2578L50.5078 27.2461V36.3281H47.5781C47.5781 28.8844 42.9269 22.5071 36.3786 19.9482C38.5663 18.1195 39.9609 15.3723 39.9609 12.3047V3.51562H42.3047V9.96094C42.3047 10.9317 43.0917 11.7188 44.0625 11.7188C45.0333 11.7188 45.8203 10.9317 45.8203 9.96094V1.75781C45.8203 0.787031 45.0333 0 44.0625 0H15.9375C14.9667 0 14.1797 0.787031 14.1797 1.75781C14.1797 2.72859 14.9667 3.51562 15.9375 3.51562H20.039V12.3047C20.039 15.3723 21.4337 18.1195 23.6213 19.9482C17.073 22.5071 12.4218 28.8844 12.4218 36.3281H4.21872C3.64474 36.3281 3.10685 36.6084 2.77802 37.0788C2.44919 37.5495 2.37067 38.1507 2.56802 38.6898L6.08364 48.2992C6.33712 48.9922 6.99642 49.4531 7.73435 49.4531H8.32028V58.2422C8.32028 59.213 9.10732 60 10.0781 60H49.9218C50.8926 60 51.6797 59.213 51.6797 58.2422V49.4531H52.2656C53.0035 49.4531 53.6628 48.9922 53.9164 48.2992L57.432 38.6898C57.6293 38.1509 57.5509 37.5495 57.2219 37.0788ZM44.0625 36.3281H31.7578V32.9547L39.0979 25.6146C42.1332 28.196 44.0625 32.0407 44.0625 36.3281ZM36.4453 3.51562V7.03125H23.5547V3.51562H36.4453ZM23.5547 12.3047V10.5469H36.4453V12.3047C36.4453 15.8586 33.5539 18.75 30 18.75C26.446 18.75 23.5547 15.8586 23.5547 12.3047ZM36.0879 23.6529L30 29.7407L23.9121 23.6529C25.7552 22.764 27.8205 22.2656 30 22.2656C32.1794 22.2656 34.2447 22.764 36.0879 23.6529ZM20.902 25.6145L28.2422 32.9547V36.3281H15.9375C15.9375 32.0407 17.8667 28.196 20.902 25.6145ZM48.164 56.4844H11.8359V49.4531H48.164V56.4844ZM51.037 45.9375H8.96294L6.73357 39.8438H53.2664L51.037 45.9375Z" fill="#1F7973"/>
</svg>
