<svg width="40" height="40" viewBox="0 0 40 40" fill="none" xmlns="http://www.w3.org/2000/svg">
<g clip-path="url(#clip0)">
<path d="M38.7967 6.97235H33.0276V1.20331C33.0276 0.53833 32.4887 0 31.8243 0H1.20331C0.53833 0 0 0.53833 0 1.20331V31.8243C0 32.4887 0.53833 33.0276 1.20331 33.0276H6.97235V38.7967C6.97235 39.4617 7.51129 40 8.17566 40H38.7967C39.4617 40 40 39.4617 40 38.7967V8.17566C40 7.51129 39.4617 6.97235 38.7967 6.97235ZM37.5937 37.5937H9.37866V33.0276H31.8243C32.4887 33.0276 33.0276 32.4887 33.0276 31.8243V9.37866H37.5937V37.5937ZM2.40631 2.40631H30.6213V30.6213H2.40631V2.40631Z" fill="#1F7973"/>
<path d="M8.15088 10.8658H8.17499H10.5395C12.1343 10.8658 12.1273 8.45947 10.5395 8.45947H8.15088C6.56213 8.45947 6.55603 10.8658 8.15088 10.8658Z" fill="#1F7973"/>
<path d="M15.2206 10.8658H24.8755C26.4673 10.8658 26.4807 8.45947 24.8755 8.45947H15.2206C13.6151 8.45947 13.6285 10.8658 15.2206 10.8658Z" fill="#1F7973"/>
<path d="M8.15189 17.7169H8.176H10.5405C12.1299 17.7169 12.1335 15.3105 10.5405 15.3105C9.71683 15.3105 9.01645 15.3105 8.176 15.3105H8.15189C6.55582 15.3105 6.54605 17.7169 8.15189 17.7169Z" fill="#1F7973"/>
<path d="M15.2225 17.7169H24.8773C26.4667 17.7169 26.4694 15.3105 24.8773 15.3105H15.2225C13.6328 15.3105 13.6304 17.7169 15.2225 17.7169Z" fill="#1F7973"/>
<path d="M8.15099 24.5684H8.1751H10.5396C12.1314 24.5684 12.1296 22.1621 10.5396 22.1621C9.71594 22.1621 9.01556 22.1621 8.1751 22.1621H8.15099C6.56499 22.1621 6.53753 24.5684 8.15099 24.5684Z" fill="#1F7973"/>
<path d="M15.2223 24.5684H24.8772C26.4665 24.5684 26.4693 22.1621 24.8772 22.1621H15.2223C13.633 22.1621 13.6302 24.5684 15.2223 24.5684Z" fill="#1F7973"/>
</g>
<defs>
<clipPath id="clip0">
<rect width="40" height="40" fill="white"/>
</clipPath>
</defs>
</svg>
